/* XPM */
static char* Xpmattention2[] = {
"64 64 3 1",
"  c #000000",
"! c #FF0000",
"# c #FFFFFF",
"                                                                ",
"                                                                ",
"                                                                ",
"                                                                ",
"                                                                ",
"                                                                ",
"                        ################                        ",
"                     ######################                     ",
"                  ############################                  ",
"                ################################                ",
"               ##################################               ",
"             ######################################             ",
"            ########################################            ",
"           ###################!!!!!##################           ",
"          ###################!!!!!!###################          ",
"         ####################!!!!!!!###################         ",
"        #####################!!!!!!!####################        ",
"       ######################!!!!!!!#####################       ",
"       ######################!!!!!!!#####################       ",
"      #######################!!!!!!#######################      ",
"      #######################!!!!!!#######################      ",
"     ########################!!!!!!########################     ",
"     #########################!!!!!########################     ",
"     #########################!!!!!########################     ",
"    ##########################!!!!!#########################    ",
"    ##########################!!!!!#########################    ",
"    ##########################!!!!##########################    ",
"    ##########################!!!!##########################    ",
"    ##########################!!!!##########################    ",
"    ###########################!!!##########################    ",
"    ###########################!!!##########################    ",
"    ###########################!!!##########################    ",
"     ##########################!!!#########################     ",
"     ##########################!!##########################     ",
"     ##########################!!##########################     ",
"     ###########################!##########################     ",
"      ####################################################      ",
"      ####################################################      ",
"       #######################!!!!#######################       ",
"        ######################!!!!!#####################        ",
"        #####################!!!!!!#####################        ",
"         ####################!!!!!!####################         ",
"          ###################!!!!!!###################          ",
"           ###################!!!!!##################           ",
"            ###################!!###################            ",
"             ######################################             ",
"               ##################################               ",
"                ################################                ",
"                  ############################                  ",
"                     ######################                     ",
"                        ###################                     ",
"                                   ########                     ",
"                                    #######                     ",
"                                      #####                     ",
"                                       ####                     ",
"                                        ###                     ",
"                                          #                     ",
"                                                                ",
"                                                                ",
"                                                                ",
"                                                                ",
"                                                                ",
"                                                                ",
"                                                                "};
