/* XPM */
static char* Xpmattention[] = {
"48 48 4 1",
"  c #000000",
"! c #C04040",
"# c #FFFBF0",
"$ c #FFFFFF",
"                                                ",
"                                                ",
"                                                ",
"                                                ",
"                                                ",
"                                                ",
"                                                ",
"                      !!!!!                     ",
"                   !!!!!!!!!!                   ",
"                !!!!!!!!!!!!!!!!                ",
"              !!!!!!!!!!!!!!!!!!!!              ",
"             !!!!!!!!!!!!!!!!!!!!!!             ",
"            !!!!!!!!!!!!!!!!!!!!!!!!            ",
"           !!!!!!!!!!!!!!!!!!!!!!!!!!           ",
"          !!!!!!!!!!!!!!!!!!!!!!!!!!!!          ",
"         !!!!!!!!!!!!!!!!!!!!!!!!!!!!!!         ",
"        !!!!!!!!!!!!!!$$$$!!!!!!!!!!!!!         ",
"        !!!!!!!!!!!!!!$$$$!!!!!!!!!!!!!!        ",
"        !!!!!!!!!!!!!!$$$$!!!!!!!!!!!!!!        ",
"       !!!!!!!!!!!!!!!$$$$!!!!!!!!!!!!!!!       ",
"       !!!!!!!!!!!!!!!$$$$!!!!!!!!!!!!!!!       ",
"       !!!!!!!!!!!!!!!$$$$!!!!!!!!!!!!!!!       ",
"       !!!!!!!!!!!!!!!$$$#!!!!!!!!!!!!!!!       ",
"       !!!!!!!!!!!!!!!$$$#!!!!!!!!!!!!!!!       ",
"      !!!!!!!!!!!!!!!!$$$#!!!!!!!!!!!!!!!!      ",
"      !!!!!!!!!!!!!!!!$$$$!!!!!!!!!!!!!!!!      ",
"       !!!!!!!!!!!!!!!$$$$!!!!!!!!!!!!!!!!      ",
"       !!!!!!!!!!!!!!!$$$$!!!!!!!!!!!!!!!       ",
"       !!!!!!!!!!!!!!!$$$$!!!!!!!!!!!!!!!       ",
"       !!!!!!!!!!!!!!!!!!!!!!!!!!!!!!!!!!       ",
"       !!!!!!!!!!!!!!!!!!!!!!!!!!!!!!!!!!       ",
"        !!!!!!!!!!!!!!$$$#!!!!!!!!!!!!!!        ",
"        !!!!!!!!!!!!!$$$$$!!!!!!!!!!!!!!        ",
"        !!!!!!!!!!!!!#$$$$$!!!!!!!!!!!!!        ",
"         !!!!!!!!!!!!!$$$#!!!!!!!!!!!!!         ",
"          !!!!!!!!!!!!!!!!!!!!!!!!!!!!          ",
"           !!!!!!!!!!!!!!!!!!!!!!!!!!           ",
"           !!!!!!!!!!!!!!!!!!!!!!!!!            ",
"             !!!!!!!!!!!!!!!!!!!!!!             ",
"              !!!!!!!!!!!!!!!!!!!!              ",
"                !!!!!!!!!!!!!!!!                ",
"                 !!!!!!!!!!!!!!                 ",
"                      !!!!!                     ",
"                                                ",
"                                                ",
"                                                ",
"                                                ",
"                                                "};